<svg xmlns="http://www.w3.org/2000/svg" viewBox="0 0 103.09 23.03"><defs><style>.a{fill:#fff;}.b{fill:#d9c5a0;}</style></defs><path class="a" d="M1.45,14.7c.05-.28.1-2.22.1-3V8.77A13.16,13.16,0,0,0,1.4,5.94,4.05,4.05,0,0,0,0,5.43l.18-.81H4.39c1.94,0,3.51,0,4.8-.13.11.15.31.44.39.57-.12.77-.34,2-.46,2.76a8.27,8.27,0,0,1-1.29-.08l-.34-2c-.53,0-1.29-.06-2-.06s-1.25,0-1.76,0c0,.34-.1,2.29-.1,3.1v1l3.6-.14.28.32c0,.28-.15.79-.2,1.07l-3.68-.12v.84A12.42,12.42,0,0,0,3.8,14.6a4.77,4.77,0,0,0,1.93.24,16.19,16.19,0,0,0,2-.13l.45-2a8.87,8.87,0,0,1,1.37.06c.05,1,.05,2.07,0,3.13H.18L0,15.12Z"/><path class="a" d="M12.6,14.7c.05-.28.1-2.22.1-3V8.77A15,15,0,0,0,12.57,6a4.09,4.09,0,0,0-1.42-.53l.18-.81h2.21c.57,0,2.31-.1,3.1-.1,4.47,0,6,2.68,6,5.72,0,3.88-2.52,5.81-5.61,5.81-1.06,0-2.42-.13-3.41-.13H11.33l-.18-.8Zm2.33-.13a5.57,5.57,0,0,0,3.42.08c1.34-.71,2.09-2.21,2.12-4.41A5.19,5.19,0,0,0,19,6.36a4.82,4.82,0,0,0-2.54-.61,10,10,0,0,0-1.58.11c-.05.33-.1,2.2-.1,3v2.9A15.67,15.67,0,0,0,14.93,14.57Z"/><path class="a" d="M29.63,16.18c-3.19,0-4.71-1.84-4.71-5.55V8.85A13.15,13.15,0,0,0,24.76,6a3.72,3.72,0,0,0-1.39-.55l.18-.81h4.92l.18.81-1.47.42c-.05.27-.11,2.21-.11,3v1.83c0,2.63.79,4.05,3,4.05a3,3,0,0,0,2.42-1,15,15,0,0,0,.37-4.35,24.77,24.77,0,0,0-.11-3.45,7,7,0,0,0-1.55-.5l.18-.81H35.8l.18.81-1.52.43c0,1.1-.08,2.62-.08,5.33C34.38,14.54,32.51,16.18,29.63,16.18Z"/><path class="a" d="M44.5,14.28c.11-.47.29-1.12.48-2a9.85,9.85,0,0,1,1.44.06c0,.62,0,1.7,0,2.3l-.21.43a7.34,7.34,0,0,1-4,1.12c-3.45,0-5.63-2.18-5.63-5.77a5.76,5.76,0,0,1,5.92-6,8.2,8.2,0,0,1,3.77.93l.22.44c-.13.84-.34,2-.48,2.79a7.64,7.64,0,0,1-1.34-.06c-.15-1-.33-1.84-.41-2.29a3.81,3.81,0,0,0-1.85-.42,4.09,4.09,0,0,0-2.33.64,6,6,0,0,0-1.26,3.86c0,2.7,1.33,4.44,3.62,4.44A3.69,3.69,0,0,0,44.5,14.28Z"/><path class="a" d="M52.25,15.92H47.81l-.16-.8L49,14.7C50.05,12.05,51.15,9,52.2,6.2l.47-1.58c.78-.1,2-.18,2.73-.19A18.31,18.31,0,0,0,56,6.23c1.07,2.94,2.35,6.35,3.18,8.47l1.33.42-.18.8H55.43l-.16-.8,1.6-.42c-.28-.73-.58-1.59-.91-2.54l-4.34.08c-.29.84-.56,1.68-.82,2.46l1.63.42ZM55.56,11C55,9.45,54.37,7.7,53.7,6,53.12,7.59,52.56,9.3,52,11Z"/><path class="a" d="M68.58,14.28c.11-.47.29-1.12.48-2a9.85,9.85,0,0,1,1.44.06c0,.62,0,1.7,0,2.3l-.21.43a7.34,7.34,0,0,1-4,1.12c-3.45,0-5.63-2.18-5.63-5.77a5.76,5.76,0,0,1,5.92-6,8.2,8.2,0,0,1,3.77.93l.22.44c-.13.84-.34,2-.48,2.79a7.64,7.64,0,0,1-1.34-.06c-.15-1-.32-1.84-.41-2.29a3.81,3.81,0,0,0-1.85-.42,4.09,4.09,0,0,0-2.33.64,6,6,0,0,0-1.26,3.86c0,2.7,1.33,4.44,3.62,4.44A3.69,3.69,0,0,0,68.58,14.28Z"/><path class="a" d="M73.68,14.7c0-.28.1-2.22.1-3V8.77A15,15,0,0,0,73.65,6a4.18,4.18,0,0,0-1.42-.53l.17-.81h4.85l.18.81L76,5.85c0,.27-.09,2.21-.09,3v2.9A16.19,16.19,0,0,0,76,14.58a4.13,4.13,0,0,0,1.43.54l-.18.8H72.4l-.17-.8Z"/><path class="a" d="M78.55,10.61c0-3.76,2.36-6.23,5.78-6.23,3.1,0,5.24,2.19,5.24,5.6,0,3.6-2.26,6.19-5.61,6.19A5.18,5.18,0,0,1,78.55,10.61ZM86.34,14a6.23,6.23,0,0,0,1-3.76c0-2.76-1-4.49-3.32-4.49a3.89,3.89,0,0,0-2.22.71,6.72,6.72,0,0,0-1,3.91c0,2.7,1.15,4.36,3.36,4.36A3.4,3.4,0,0,0,86.34,14Zm0-14A5.16,5.16,0,0,1,87,1.55L86.76,2,81.59,3.46l-.24-.12-.2-.68A54,54,0,0,1,86.29,0Z"/><path class="a" d="M99.84,16l-1.45-1.94c-1.48-2-3.34-4.3-4.83-6.14a58.15,58.15,0,0,0,.26,6.64,5.08,5.08,0,0,0,1.84.57l-.16.8H90.87l-.17-.8,1.44-.42c.07-.55.11-2,.11-4.36,0-2.75,0-4.11-.19-4.33a5.91,5.91,0,0,0-1.4-.58l.16-.81c1,0,2.19,0,3.13,0,1.11,1.84,3.86,5.27,6.15,8.14A45.82,45.82,0,0,0,99.83,6a5.08,5.08,0,0,0-1.7-.56l.18-.81h4.6l.18.81-1.45.43c-.13,1.26-.21,5.09-.21,10Z"/><path class="b" d="M.47,23a1.17,1.17,0,0,1-.42-.2l.18-.41a1.51,1.51,0,0,0,.36.18A1.54,1.54,0,0,0,1,22.6a.69.69,0,0,0,.34-.07.22.22,0,0,0,.12-.19.21.21,0,0,0-.07-.14l-.17-.09L1,22a2.62,2.62,0,0,1-.44-.13.72.72,0,0,1-.29-.2.58.58,0,0,1-.13-.38A.61.61,0,0,1,.21,21a.75.75,0,0,1,.33-.27,1.47,1.47,0,0,1,.55-.09,1.61,1.61,0,0,1,.44,0,1.88,1.88,0,0,1,.38.15l-.17.42A1.38,1.38,0,0,0,1.08,21a.57.57,0,0,0-.33.08.21.21,0,0,0-.11.19.19.19,0,0,0,.12.18,2.32,2.32,0,0,0,.39.12,2.36,2.36,0,0,1,.44.13.72.72,0,0,1,.29.2A.51.51,0,0,1,2,22.3a.67.67,0,0,1-.11.37.85.85,0,0,1-.34.27A1.51,1.51,0,0,1,1,23,1.9,1.9,0,0,1,.47,23Z"/><path class="b" d="M4.69,22.56V23H2.86V20.64H4.65v.43H3.41v.52H4.5V22H3.41v.55Z"/><path class="b" d="M6,22.88a1.19,1.19,0,0,1-.45-.44,1.23,1.23,0,0,1,0-1.25A1.19,1.19,0,0,1,6,20.75a1.45,1.45,0,0,1,.66-.15,1.38,1.38,0,0,1,.55.1,1.21,1.21,0,0,1,.42.31l-.35.33a.74.74,0,0,0-.59-.28.71.71,0,0,0-.39.1.62.62,0,0,0-.27.26.76.76,0,0,0-.1.39.77.77,0,0,0,.1.4.62.62,0,0,0,.27.26.71.71,0,0,0,.39.1.74.74,0,0,0,.59-.28l.35.32a1.12,1.12,0,0,1-.42.32,1.38,1.38,0,0,1-.55.1A1.45,1.45,0,0,1,6,22.88Z"/><path class="b" d="M10,23l-.46-.65H9V23H8.47V20.64h1a1.27,1.27,0,0,1,.54.1.88.88,0,0,1,.36.3.82.82,0,0,1,.12.45.73.73,0,0,1-.13.45.79.79,0,0,1-.35.3l.52.75Zm-.14-1.8a.56.56,0,0,0-.37-.11H9v.82h.45a.51.51,0,0,0,.37-.11.41.41,0,0,0,0-.6Z"/><path class="b" d="M13.23,22.56V23H11.4V20.64h1.79v.43H12v.52H13V22H12v.55Z"/><path class="b" d="M14.65,21.08h-.76v-.44H16v.44h-.76V23h-.54Z"/><path class="b" d="M18,22.49h-1.1l-.21.5h-.55l1.05-2.35h.54L18.8,23h-.57Zm-.17-.42-.38-.9-.37.9Z"/><path class="b" d="M21,23l-.45-.65h-.51V23h-.54V20.64h1a1.27,1.27,0,0,1,.54.1.77.77,0,0,1,.36.3.82.82,0,0,1,.12.45.79.79,0,0,1-.12.45.88.88,0,0,1-.36.3l.53.75Zm-.14-1.8a.56.56,0,0,0-.37-.11h-.45v.82h.45a.51.51,0,0,0,.37-.11.41.41,0,0,0,0-.6Z"/><path class="b" d="M22.88,20h.57l-.61.48h-.42Zm-.42.68H23V23h-.54Z"/><path class="b" d="M25.59,22.49h-1.1l-.21.5h-.55l1.05-2.35h.54L26.37,23H25.8Zm-.17-.42-.38-.9-.37.9Z"/><path class="b" d="M28.51,20.64h1.07a1.45,1.45,0,0,1,.68.14,1.11,1.11,0,0,1,.62,1,1.12,1.12,0,0,1-.16.62,1.1,1.1,0,0,1-.46.42,1.45,1.45,0,0,1-.68.14H28.51Zm1,1.91a.8.8,0,0,0,.56-.2.7.7,0,0,0,.21-.54.69.69,0,0,0-.21-.53.8.8,0,0,0-.56-.2h-.5v1.47Z"/><path class="b" d="M33.58,22.56V23H31.75V20.64h1.79v.43H32.3v.52h1.09V22H32.3v.55Z"/><path class="b" d="M37.74,22.56V23H35.91V20.64h1.78v.43H36.45v.52h1.1V22h-1.1v.55Z"/><path class="b" d="M38.65,20.64h1.07a1.48,1.48,0,0,1,.68.14,1.11,1.11,0,0,1,.62,1,1.12,1.12,0,0,1-.16.62,1.1,1.1,0,0,1-.46.42,1.48,1.48,0,0,1-.68.14H38.65Zm1,1.91a.81.81,0,0,0,.57-.2.7.7,0,0,0,.21-.54.69.69,0,0,0-.21-.53.81.81,0,0,0-.57-.2h-.5v1.47Z"/><path class="b" d="M42.14,22.75a1,1,0,0,1-.28-.79V20.64h.54v1.3c0,.42.18.63.53.63a.5.5,0,0,0,.39-.15.74.74,0,0,0,.14-.48v-1.3H44V22A1,1,0,0,1,42.93,23,1.06,1.06,0,0,1,42.14,22.75Z"/><path class="b" d="M45.46,22.88a1.29,1.29,0,0,1-.46-.44,1.3,1.3,0,0,1,0-1.25,1.29,1.29,0,0,1,.46-.44,1.45,1.45,0,0,1,.66-.15,1.38,1.38,0,0,1,.55.1,1.21,1.21,0,0,1,.42.31l-.35.33a.75.75,0,0,0-.6-.28.76.76,0,0,0-.39.1.65.65,0,0,0-.26.26.76.76,0,0,0-.1.39.77.77,0,0,0,.1.4.65.65,0,0,0,.26.26.76.76,0,0,0,.39.1.75.75,0,0,0,.6-.28l.35.32a1.12,1.12,0,0,1-.42.32,1.43,1.43,0,0,1-.56.1A1.41,1.41,0,0,1,45.46,22.88Z"/><path class="b" d="M49.5,22.49H48.41l-.21.5h-.56l1-2.35h.54L50.29,23h-.58Zm-.17-.42-.37-.9-.37.9Z"/><path class="b" d="M51.37,22.88a1.22,1.22,0,0,1-.46-.44,1.3,1.3,0,0,1,0-1.25,1.22,1.22,0,0,1,.46-.44A1.4,1.4,0,0,1,52,20.6a1.42,1.42,0,0,1,.55.1A1.43,1.43,0,0,1,53,21l-.35.33a.75.75,0,0,0-.6-.28.76.76,0,0,0-.39.1.75.75,0,0,0-.27.26.86.86,0,0,0-.09.39.87.87,0,0,0,.09.4.75.75,0,0,0,.27.26.76.76,0,0,0,.39.1.75.75,0,0,0,.6-.28l.35.32a1.3,1.3,0,0,1-.42.32A1.43,1.43,0,0,1,52,23,1.38,1.38,0,0,1,51.37,22.88Z"/><path class="b" d="M53.8,20.64h.55V23H53.8Z"/><path class="b" d="M55.85,22.88a1.15,1.15,0,0,1-.46-.44,1.23,1.23,0,0,1,0-1.25,1.15,1.15,0,0,1,.46-.44,1.43,1.43,0,0,1,.66-.15,1.4,1.4,0,0,1,.66.15,1.15,1.15,0,0,1,.46.44,1.23,1.23,0,0,1,0,1.25,1.15,1.15,0,0,1-.46.44,1.4,1.4,0,0,1-.66.15A1.43,1.43,0,0,1,55.85,22.88Zm1-.41a.65.65,0,0,0,.26-.26.77.77,0,0,0,.1-.4.76.76,0,0,0-.1-.39.65.65,0,0,0-.26-.26.7.7,0,0,0-.38-.1.72.72,0,0,0-.38.1.65.65,0,0,0-.26.26.76.76,0,0,0-.1.39.77.77,0,0,0,.1.4.65.65,0,0,0,.26.26.72.72,0,0,0,.38.1A.7.7,0,0,0,56.89,22.47ZM56.66,20h.56l-.61.48H56.2Z"/><path class="b" d="M60.83,20.64V23h-.44l-1.18-1.43V23h-.54V20.64h.45l1.17,1.43V20.64Z"/><path class="b" d="M64.85,20.74a.77.77,0,0,1,.36.3.9.9,0,0,1,0,.9.77.77,0,0,1-.36.3,1.27,1.27,0,0,1-.54.1h-.47V23h-.55V20.64h1A1.27,1.27,0,0,1,64.85,20.74Zm-.2,1.05a.41.41,0,0,0,0-.6.56.56,0,0,0-.37-.11h-.44v.82h.44A.56.56,0,0,0,64.65,21.79Z"/><path class="b" d="M66.42,22.75a1.09,1.09,0,0,1-.28-.79V20.64h.55v1.3c0,.42.17.63.52.63a.5.5,0,0,0,.39-.15.74.74,0,0,0,.14-.48v-1.3h.54V22a1.09,1.09,0,0,1-.28.79,1.25,1.25,0,0,1-1.58,0ZM67.36,20h.57l-.61.48h-.41Z"/><path class="b" d="M71.32,22a.57.57,0,0,1,.12.37.55.55,0,0,1-.24.48,1.25,1.25,0,0,1-.7.16H69.28V20.64h1.15a1.11,1.11,0,0,1,.66.16.53.53,0,0,1,.23.45.65.65,0,0,1-.08.31.58.58,0,0,1-.23.21A.58.58,0,0,1,71.32,22Zm-1.5-.93v.55h.54a.53.53,0,0,0,.31-.07.23.23,0,0,0,.1-.21.21.21,0,0,0-.1-.2.53.53,0,0,0-.31-.07Zm1,1.46a.24.24,0,0,0,.11-.22c0-.19-.14-.29-.43-.29h-.64v.58h.64A.56.56,0,0,0,70.78,22.51Z"/><path class="b" d="M72.32,20.64h.55v1.91h1.18V23H72.32Z"/><path class="b" d="M74.8,20.64h.55V23H74.8Z"/><path class="b" d="M76.84,22.88a1.19,1.19,0,0,1-.45-.44,1.23,1.23,0,0,1,0-1.25,1.19,1.19,0,0,1,.45-.44,1.45,1.45,0,0,1,.66-.15,1.38,1.38,0,0,1,.55.1,1.21,1.21,0,0,1,.42.31l-.35.33a.74.74,0,0,0-.59-.28.71.71,0,0,0-.39.1.62.62,0,0,0-.27.26.76.76,0,0,0-.1.39.77.77,0,0,0,.1.4.62.62,0,0,0,.27.26.71.71,0,0,0,.39.1.74.74,0,0,0,.59-.28l.35.32a1.12,1.12,0,0,1-.42.32,1.38,1.38,0,0,1-.55.1A1.45,1.45,0,0,1,76.84,22.88Z"/><path class="b" d="M80.89,22.49h-1.1l-.21.5H79l1-2.35h.54L81.67,23H81.1Zm-.18-.42-.37-.9-.37.9Z"/></svg>